<?xml version="1.0" encoding="UTF-8" standalone="no"?>
<!DOCTYPE svg PUBLIC "-//W3C//DTD SVG 1.1//EN"
 "http://www.w3.org/Graphics/SVG/1.1/DTD/svg11.dtd">
<!-- Generated by graphviz version 2.40.1 (20161225.0304)
 -->
<!-- Title: G Pages: 1 -->
<svg width="445pt" height="912pt"
 viewBox="0.00 0.00 444.70 912.00" xmlns="http://www.w3.org/2000/svg" xmlns:xlink="http://www.w3.org/1999/xlink">
<g id="graph0" class="graph" transform="scale(1 1) rotate(0) translate(4 908)">
<title>G</title>
<polygon fill="#ffffff" stroke="transparent" points="-4,4 -4,-908 440.6955,-908 440.6955,4 -4,4"/>
<g id="clust1" class="cluster">
<title>cluster_Global</title>
<path fill="none" stroke="#c0c0c0" d="M20,-44C20,-44 416.6955,-44 416.6955,-44 422.6955,-44 428.6955,-50 428.6955,-56 428.6955,-56 428.6955,-884 428.6955,-884 428.6955,-890 422.6955,-896 416.6955,-896 416.6955,-896 20,-896 20,-896 14,-896 8,-890 8,-884 8,-884 8,-56 8,-56 8,-50 14,-44 20,-44"/>
<text text-anchor="middle" x="218.3478" y="-883.2" font-family="Times,serif" font-size="11.00" fill="#c0c0c0">Global</text>
</g>
<g id="clust2" class="cluster">
<title>cluster_\ktc</title>
<path fill="none" stroke="#c0c0c0" d="M28,-52C28,-52 408.6955,-52 408.6955,-52 414.6955,-52 420.6955,-58 420.6955,-64 420.6955,-64 420.6955,-856 420.6955,-856 420.6955,-862 414.6955,-868 408.6955,-868 408.6955,-868 28,-868 28,-868 22,-868 16,-862 16,-856 16,-856 16,-64 16,-64 16,-58 22,-52 28,-52"/>
<text text-anchor="middle" x="218.3478" y="-855.2" font-family="Times,serif" font-size="11.00" fill="#c0c0c0">ktc</text>
</g>
<g id="clust3" class="cluster">
<title>cluster_\ktc\a2</title>
<path fill="none" stroke="#c0c0c0" d="M36,-60C36,-60 400.6955,-60 400.6955,-60 406.6955,-60 412.6955,-66 412.6955,-72 412.6955,-72 412.6955,-828 412.6955,-828 412.6955,-834 406.6955,-840 400.6955,-840 400.6955,-840 36,-840 36,-840 30,-840 24,-834 24,-828 24,-828 24,-72 24,-72 24,-66 30,-60 36,-60"/>
<text text-anchor="middle" x="218.3478" y="-827.2" font-family="Times,serif" font-size="11.00" fill="#c0c0c0">a2</text>
</g>
<g id="clust4" class="cluster">
<title>cluster_\ktc\a2\controller</title>
<path fill="none" stroke="#c0c0c0" d="M44,-578C44,-578 375.6955,-578 375.6955,-578 381.6955,-578 387.6955,-584 387.6955,-590 387.6955,-590 387.6955,-800 387.6955,-800 387.6955,-806 381.6955,-812 375.6955,-812 375.6955,-812 44,-812 44,-812 38,-812 32,-806 32,-800 32,-800 32,-590 32,-590 32,-584 38,-578 44,-578"/>
<text text-anchor="middle" x="209.8478" y="-799.2" font-family="Times,serif" font-size="11.00" fill="#c0c0c0">controller</text>
</g>
<g id="clust5" class="cluster">
<title>cluster_\ktc\a2\Exception</title>
<path fill="none" stroke="#c0c0c0" d="M252.6955,-148C252.6955,-148 348.6955,-148 348.6955,-148 354.6955,-148 360.6955,-154 360.6955,-160 360.6955,-160 360.6955,-208 360.6955,-208 360.6955,-214 354.6955,-220 348.6955,-220 348.6955,-220 252.6955,-220 252.6955,-220 246.6955,-220 240.6955,-214 240.6955,-208 240.6955,-208 240.6955,-160 240.6955,-160 240.6955,-154 246.6955,-148 252.6955,-148"/>
<text text-anchor="middle" x="300.6955" y="-207.2" font-family="Times,serif" font-size="11.00" fill="#c0c0c0">Exception</text>
</g>
<g id="clust6" class="cluster">
<title>cluster_\ktc\a2\model</title>
<path fill="none" stroke="#c0c0c0" d="M59,-228C59,-228 392.6955,-228 392.6955,-228 398.6955,-228 404.6955,-234 404.6955,-240 404.6955,-240 404.6955,-558 404.6955,-558 404.6955,-564 398.6955,-570 392.6955,-570 392.6955,-570 59,-570 59,-570 53,-570 47,-564 47,-558 47,-558 47,-240 47,-240 47,-234 53,-228 59,-228"/>
<text text-anchor="middle" x="225.8478" y="-557.2" font-family="Times,serif" font-size="11.00" fill="#c0c0c0">model</text>
</g>
<g id="clust7" class="cluster">
<title>cluster_\ktc\a2\view</title>
<path fill="none" stroke="#c0c0c0" d="M277.6955,-68C277.6955,-68 323.6955,-68 323.6955,-68 329.6955,-68 335.6955,-74 335.6955,-80 335.6955,-80 335.6955,-128 335.6955,-128 335.6955,-134 329.6955,-140 323.6955,-140 323.6955,-140 277.6955,-140 277.6955,-140 271.6955,-140 265.6955,-134 265.6955,-128 265.6955,-128 265.6955,-80 265.6955,-80 265.6955,-74 271.6955,-68 277.6955,-68"/>
<text text-anchor="middle" x="300.6955" y="-127.2" font-family="Times,serif" font-size="11.00" fill="#c0c0c0">view</text>
</g>
<!-- \\ktc\\a2\\controller\\AccountController -->
<g id="node1" class="node">
<title>\\ktc\\a2\\controller\\AccountController</title>
<polygon fill="none" stroke="#000000" points="366.1955,-784 235.1955,-784 235.1955,-748 366.1955,-748 366.1955,-784"/>
<text text-anchor="middle" x="300.6955" y="-763.2" font-family="Courier,monospace" font-size="11.00" fill="#000000">AccountController</text>
</g>
<!-- \\ktc\\a2\\controller\\Controller -->
<g id="node2" class="node">
<title>\\ktc\\a2\\controller\\Controller</title>
<polygon fill="none" stroke="#000000" points="124,-703 40,-703 40,-667 124,-667 124,-703"/>
<text text-anchor="middle" x="82" y="-682.2" font-family="Courier,monospace" font-size="11.00" fill="#000000">Controller</text>
</g>
<!-- \\ktc\\a2\\controller\\AccountController&#45;&gt;\\ktc\\a2\\controller\\Controller -->
<g id="edge1" class="edge">
<title>\\ktc\\a2\\controller\\AccountController&#45;&gt;\\ktc\\a2\\controller\\Controller</title>
<path fill="none" stroke="#000000" d="M234.9815,-748.845C224.7671,-745.7977 214.3921,-742.4779 204.6955,-739 179.1059,-729.8216 151.3231,-717.7761 128.6765,-707.391"/>
<polygon fill="none" stroke="#000000" points="129.852,-704.0785 119.3066,-703.0552 126.9122,-710.4313 129.852,-704.0785"/>
</g>
<!-- \\ktc\\a2\\controller\\HomeController -->
<g id="node3" class="node">
<title>\\ktc\\a2\\controller\\HomeController</title>
<polygon fill="none" stroke="#000000" points="356.1955,-730 245.1955,-730 245.1955,-694 356.1955,-694 356.1955,-730"/>
<text text-anchor="middle" x="300.6955" y="-709.2" font-family="Courier,monospace" font-size="11.00" fill="#000000">HomeController</text>
</g>
<!-- \\ktc\\a2\\controller\\HomeController&#45;&gt;\\ktc\\a2\\controller\\Controller -->
<g id="edge2" class="edge">
<title>\\ktc\\a2\\controller\\HomeController&#45;&gt;\\ktc\\a2\\controller\\Controller</title>
<path fill="none" stroke="#000000" d="M244.9435,-705.1169C210.8816,-700.9116 167.6017,-695.5683 134.2087,-691.4456"/>
<polygon fill="none" stroke="#000000" points="134.5374,-687.9597 124.1839,-690.208 133.6797,-694.907 134.5374,-687.9597"/>
</g>
<!-- \\ktc\\a2\\controller\\TransactionController -->
<g id="node4" class="node">
<title>\\ktc\\a2\\controller\\TransactionController</title>
<polygon fill="none" stroke="#000000" points="379.6955,-676 221.6955,-676 221.6955,-640 379.6955,-640 379.6955,-676"/>
<text text-anchor="middle" x="300.6955" y="-655.2" font-family="Courier,monospace" font-size="11.00" fill="#000000">TransactionController</text>
</g>
<!-- \\ktc\\a2\\controller\\TransactionController&#45;&gt;\\ktc\\a2\\controller\\Controller -->
<g id="edge3" class="edge">
<title>\\ktc\\a2\\controller\\TransactionController&#45;&gt;\\ktc\\a2\\controller\\Controller</title>
<path fill="none" stroke="#000000" d="M221.4322,-667.7858C192.4031,-671.3697 160.3065,-675.3323 134.233,-678.5513"/>
<polygon fill="none" stroke="#000000" points="133.6852,-675.0923 124.1895,-679.7913 134.543,-682.0396 133.6852,-675.0923"/>
</g>
<!-- \\ktc\\a2\\controller\\UserController -->
<g id="node5" class="node">
<title>\\ktc\\a2\\controller\\UserController</title>
<polygon fill="none" stroke="#000000" points="356.1955,-622 245.1955,-622 245.1955,-586 356.1955,-586 356.1955,-622"/>
<text text-anchor="middle" x="300.6955" y="-601.2" font-family="Courier,monospace" font-size="11.00" fill="#000000">UserController</text>
</g>
<!-- \\ktc\\a2\\controller\\UserController&#45;&gt;\\ktc\\a2\\controller\\Controller -->
<g id="edge4" class="edge">
<title>\\ktc\\a2\\controller\\UserController&#45;&gt;\\ktc\\a2\\controller\\Controller</title>
<path fill="none" stroke="#000000" d="M245.1954,-618.1789C231.8186,-621.9884 217.6514,-626.353 204.6955,-631 179.1059,-640.1784 151.3231,-652.2239 128.6765,-662.609"/>
<polygon fill="none" stroke="#000000" points="126.9122,-659.5687 119.3066,-666.9448 129.852,-665.9215 126.9122,-659.5687"/>
</g>
<!-- \\ktc\\a2\\Exception\\BankException -->
<g id="node6" class="node">
<title>\\ktc\\a2\\Exception\\BankException</title>
<polygon fill="none" stroke="#000000" points="352.6955,-192 248.6955,-192 248.6955,-156 352.6955,-156 352.6955,-192"/>
<text text-anchor="middle" x="300.6955" y="-171.2" font-family="Courier,monospace" font-size="11.00" fill="#000000">BankException</text>
</g>
<!-- \\Exception -->
<g id="node15" class="node">
<title>\\Exception</title>
<ellipse fill="none" stroke="#000000" cx="82" cy="-18" rx="50.8918" ry="18"/>
<text text-anchor="middle" x="82" y="-14.3" font-family="Times,serif" font-size="14.00" fill="#c0c0c0">xception</text>
</g>
<!-- \\ktc\\a2\\Exception\\BankException&#45;&gt;\\Exception -->
<g id="edge5" class="edge">
<title>\\ktc\\a2\\Exception\\BankException&#45;&gt;\\Exception</title>
<path fill="none" stroke="#000000" d="M248.343,-162.7402C233.5758,-158.2374 217.938,-152.1333 204.6955,-144 161.547,-117.4988 122.8112,-72.4543 100.8793,-44.0143"/>
<polygon fill="none" stroke="#000000" points="103.4545,-41.6174 94.6261,-35.76 97.8749,-45.8445 103.4545,-41.6174"/>
</g>
<!-- \\ktc\\a2\\model\\AccountCollectionModel -->
<g id="node7" class="node">
<title>\\ktc\\a2\\model\\AccountCollectionModel</title>
<polygon fill="none" stroke="#000000" points="383.1955,-542 218.1955,-542 218.1955,-506 383.1955,-506 383.1955,-542"/>
<text text-anchor="middle" x="300.6955" y="-521.2" font-family="Courier,monospace" font-size="11.00" fill="#000000">AccountCollectionModel</text>
</g>
<!-- \\ktc\\a2\\model\\Model -->
<g id="node9" class="node">
<title>\\ktc\\a2\\model\\Model</title>
<polygon fill="none" stroke="#000000" points="109,-407 55,-407 55,-371 109,-371 109,-407"/>
<text text-anchor="middle" x="82" y="-386.2" font-family="Courier,monospace" font-size="11.00" fill="#000000">Model</text>
</g>
<!-- \\ktc\\a2\\model\\AccountCollectionModel&#45;&gt;\\ktc\\a2\\model\\Model -->
<g id="edge6" class="edge">
<title>\\ktc\\a2\\model\\AccountCollectionModel&#45;&gt;\\ktc\\a2\\model\\Model</title>
<path fill="none" stroke="#000000" d="M224.2394,-505.9334C217.4697,-503.3145 210.8558,-500.3492 204.6955,-497 165.1012,-475.4735 127.4133,-439.0918 104.5043,-414.5705"/>
<polygon fill="none" stroke="#000000" points="106.9455,-412.0545 97.6019,-407.0597 101.7914,-416.791 106.9455,-412.0545"/>
</g>
<!-- \\ktc\\a2\\model\\AccountModel -->
<g id="node8" class="node">
<title>\\ktc\\a2\\model\\AccountModel</title>
<polygon fill="none" stroke="#000000" points="349.6955,-488 251.6955,-488 251.6955,-452 349.6955,-452 349.6955,-488"/>
<text text-anchor="middle" x="300.6955" y="-467.2" font-family="Courier,monospace" font-size="11.00" fill="#000000">AccountModel</text>
</g>
<!-- \\ktc\\a2\\model\\AccountModel&#45;&gt;\\ktc\\a2\\model\\Model -->
<g id="edge7" class="edge">
<title>\\ktc\\a2\\model\\AccountModel&#45;&gt;\\ktc\\a2\\model\\Model</title>
<path fill="none" stroke="#000000" d="M251.4388,-457.5758C236.3037,-453.3772 219.6885,-448.3777 204.6955,-443 175.1062,-432.387 142.5845,-417.9406 118.4619,-406.6605"/>
<polygon fill="none" stroke="#000000" points="119.8637,-403.4519 109.3261,-402.3521 116.8779,-409.7832 119.8637,-403.4519"/>
</g>
<!-- \\ktc\\a2\\model\\TransactionCollectionModel -->
<g id="node10" class="node">
<title>\\ktc\\a2\\model\\TransactionCollectionModel</title>
<polygon fill="none" stroke="#000000" points="396.6955,-434 204.6955,-434 204.6955,-398 396.6955,-398 396.6955,-434"/>
<text text-anchor="middle" x="300.6955" y="-413.2" font-family="Courier,monospace" font-size="11.00" fill="#000000">TransactionCollectionModel</text>
</g>
<!-- \\ktc\\a2\\model\\TransactionCollectionModel&#45;&gt;\\ktc\\a2\\model\\Model -->
<g id="edge8" class="edge">
<title>\\ktc\\a2\\model\\TransactionCollectionModel&#45;&gt;\\ktc\\a2\\model\\Model</title>
<path fill="none" stroke="#000000" d="M204.4542,-404.1181C174.4425,-400.4129 143.0944,-396.5427 119.6294,-393.6457"/>
<polygon fill="none" stroke="#000000" points="119.7894,-390.139 109.4359,-392.3872 118.9317,-397.0862 119.7894,-390.139"/>
</g>
<!-- \\ktc\\a2\\model\\TransactionModel -->
<g id="node11" class="node">
<title>\\ktc\\a2\\model\\TransactionModel</title>
<polygon fill="none" stroke="#000000" points="363.1955,-380 238.1955,-380 238.1955,-344 363.1955,-344 363.1955,-380"/>
<text text-anchor="middle" x="300.6955" y="-359.2" font-family="Courier,monospace" font-size="11.00" fill="#000000">TransactionModel</text>
</g>
<!-- \\ktc\\a2\\model\\TransactionModel&#45;&gt;\\ktc\\a2\\model\\Model -->
<g id="edge9" class="edge">
<title>\\ktc\\a2\\model\\TransactionModel&#45;&gt;\\ktc\\a2\\model\\Model</title>
<path fill="none" stroke="#000000" d="M238.0261,-369.7371C199.5304,-374.4898 151.5326,-380.4156 119.0132,-384.4304"/>
<polygon fill="none" stroke="#000000" points="118.5263,-380.9638 109.0306,-385.6628 119.3841,-387.9111 118.5263,-380.9638"/>
</g>
<!-- \\ktc\\a2\\model\\UserCollectionModel -->
<g id="node12" class="node">
<title>\\ktc\\a2\\model\\UserCollectionModel</title>
<polygon fill="none" stroke="#000000" points="373.1955,-326 228.1955,-326 228.1955,-290 373.1955,-290 373.1955,-326"/>
<text text-anchor="middle" x="300.6955" y="-305.2" font-family="Courier,monospace" font-size="11.00" fill="#000000">UserCollectionModel</text>
</g>
<!-- \\ktc\\a2\\model\\UserCollectionModel&#45;&gt;\\ktc\\a2\\model\\Model -->
<g id="edge10" class="edge">
<title>\\ktc\\a2\\model\\UserCollectionModel&#45;&gt;\\ktc\\a2\\model\\Model</title>
<path fill="none" stroke="#000000" d="M232.1455,-326.007C222.8548,-328.8174 213.4957,-331.8435 204.6955,-335 175.1062,-345.613 142.5845,-360.0594 118.4619,-371.3395"/>
<polygon fill="none" stroke="#000000" points="116.8779,-368.2168 109.3261,-375.6479 119.8637,-374.5481 116.8779,-368.2168"/>
</g>
<!-- \\ktc\\a2\\model\\UserModel -->
<g id="node13" class="node">
<title>\\ktc\\a2\\model\\UserModel</title>
<polygon fill="none" stroke="#000000" points="339.1955,-272 262.1955,-272 262.1955,-236 339.1955,-236 339.1955,-272"/>
<text text-anchor="middle" x="300.6955" y="-251.2" font-family="Courier,monospace" font-size="11.00" fill="#000000">UserModel</text>
</g>
<!-- \\ktc\\a2\\model\\UserModel&#45;&gt;\\ktc\\a2\\model\\Model -->
<g id="edge11" class="edge">
<title>\\ktc\\a2\\model\\UserModel&#45;&gt;\\ktc\\a2\\model\\Model</title>
<path fill="none" stroke="#000000" d="M261.7961,-260.786C243.7049,-264.9642 222.3398,-271.4072 204.6955,-281 165.1012,-302.5265 127.4133,-338.9082 104.5043,-363.4295"/>
<polygon fill="none" stroke="#000000" points="101.7914,-361.209 97.6019,-370.9403 106.9455,-365.9455 101.7914,-361.209"/>
</g>
<!-- \\ktc\\a2\\view\\View -->
<g id="node14" class="node">
<title>\\ktc\\a2\\view\\View</title>
<polygon fill="none" stroke="#000000" points="327.6955,-112 273.6955,-112 273.6955,-76 327.6955,-76 327.6955,-112"/>
<text text-anchor="middle" x="300.6955" y="-91.2" font-family="Courier,monospace" font-size="11.00" fill="#000000">View</text>
</g>
</g>
</svg>
